<?xml version="1.0" encoding="UTF-8"?>
<svg width="41px" height="40px" viewBox="0 0 41 40" version="1.1" xmlns="http://www.w3.org/2000/svg" xmlns:xlink="http://www.w3.org/1999/xlink">
    <!-- Generator: sketchtool 50.2 (55047) - http://www.bohemiancoding.com/sketch -->
    <title>23DF8C53-2B6C-4E40-9318-60C82AC642A8</title>
    <desc>Created with sketchtool.</desc>
    <defs></defs>
    <g id="Page-1" stroke="none" stroke-width="1" fill="none" fill-rule="evenodd">
        <g id="New-popup" transform="translate(-699.000000, -671.000000)" fill="#7F7F7F" fill-rule="nonzero">
            <g id="Social-networks" transform="translate(635.000000, 671.000000)">
                <g id="FACEBOOK" transform="translate(64.666667, 0.000000)">
                    <path d="M19.8608,0 C8.9096,0 0,8.9096 0,19.8608 C0,30.8112 8.9096,39.7216 19.8608,39.7216 C30.8112,39.7216 39.7216,30.8112 39.7216,19.8608 C39.7216,8.9096 30.8128,0 19.8608,0 Z M24.8,20.56 L21.5688,20.56 C21.5688,25.7224 21.5688,32.0768 21.5688,32.0768 L16.7808,32.0768 C16.7808,32.0768 16.7808,25.784 16.7808,20.56 L14.5048,20.56 L14.5048,16.4896 L16.7808,16.4896 L16.7808,13.8568 C16.7808,11.9712 17.6768,9.0248 21.6128,9.0248 L25.1608,9.0384 L25.1608,12.9896 C25.1608,12.9896 23.0048,12.9896 22.5856,12.9896 C22.1664,12.9896 21.5704,13.1992 21.5704,14.0984 L21.5704,16.4904 L25.2184,16.4904 L24.8,20.56 Z" id="Shape"></path>
                </g>
            </g>
        </g>
    </g>
</svg>