<?xml version="1.0" encoding="UTF-8"?>
<svg width="42px" height="42px" viewBox="0 0 42 42" version="1.1" xmlns="http://www.w3.org/2000/svg" xmlns:xlink="http://www.w3.org/1999/xlink">
    <!-- Generator: Sketch 50.2 (55047) - http://www.bohemiancoding.com/sketch -->
    <title>002-linkedin copy</title>
    <desc>Created with Sketch.</desc>
    <defs></defs>
    <g id="Page-1" stroke="none" stroke-width="1" fill="none" fill-rule="evenodd">
        <g id="buttons" transform="translate(-826.000000, -731.000000)" fill="#D99D29" fill-rule="nonzero">
            <g id="002-linkedin-copy" transform="translate(826.000000, 731.000000)">
                <path d="M20.9464286,0 C9.378,0 0,9.378 0,20.9464286 C0,32.5148571 9.378,41.8928571 20.9464286,41.8928571 C32.5148571,41.8928571 41.8928571,32.5148571 41.8928571,20.9464286 C41.8928571,9.378 32.5148571,0 20.9464286,0 Z M13.098,35.1282857 L7.20942857,35.1282857 L7.20942857,16.182 L13.098,16.182 L13.098,35.1282857 Z M10.155,13.5921429 C8.26757143,13.5921429 6.73971429,12.0621429 6.73971429,10.1772857 C6.74014286,8.29414286 8.26757143,6.76414286 10.155,6.76414286 C12.0372857,6.76414286 13.5672857,8.29414286 13.5672857,10.1772857 C13.5672857,12.0625714 12.0368571,13.5921429 10.155,13.5921429 Z M35.1527143,35.1282857 L29.2688571,35.1282857 L29.2688571,25.9144286 C29.2688571,23.7171429 29.2281429,20.8911429 26.208,20.8911429 C23.1454286,20.8911429 22.6744286,23.2842857 22.6744286,25.7554286 L22.6744286,35.1278571 L16.791,35.1278571 L16.791,16.182 L22.4387143,16.182 L22.4387143,18.771 L22.518,18.771 C23.3044286,17.2812857 25.2244286,15.711 28.0894286,15.711 C34.0521429,15.711 35.1527143,19.635 35.1527143,24.7362857 L35.1527143,35.1282857 Z" id="Shape"></path>
            </g>
        </g>
    </g>
</svg>