<?xml version="1.0" encoding="UTF-8"?>
<svg width="42px" height="42px" viewBox="0 0 42 42" version="1.1" xmlns="http://www.w3.org/2000/svg" xmlns:xlink="http://www.w3.org/1999/xlink">
    <!-- Generator: Sketch 50.2 (55047) - http://www.bohemiancoding.com/sketch -->
    <title>link copy 2</title>
    <desc>Created with Sketch.</desc>
    <defs></defs>
    <g id="Page-1" stroke="none" stroke-width="1" fill="none" fill-rule="evenodd">
        <g id="buttons" transform="translate(-883.000000, -729.000000)" fill="#D99D29" fill-rule="nonzero">
            <g id="link-copy-2" transform="translate(904.000000, 750.000000) scale(-1, 1) translate(-904.000000, -750.000000) translate(883.000000, 729.000000)">
                <path d="M21,0 C9.35454545,0 0,9.35454545 0,21 C0,32.6454545 9.35454545,42 21,42 C32.6454545,42 42,32.6454545 42,21 C42,9.35454545 32.6454545,0 21,0 Z M16.0363636,23.2909091 L14.7,24.6272727 C14.3181818,25.0090909 13.7454545,25.0090909 13.3636364,24.6272727 L10.9772727,22.2409091 C9.45,20.7136364 8.59090909,18.7090909 8.59090909,16.5136364 C8.59090909,12.1227273 12.2181818,8.49545455 16.6090909,8.49545455 C18.7090909,8.49545455 20.8090909,9.35454545 22.3363636,10.8818182 L24.7227273,13.2681818 C25.1045455,13.65 25.1045455,14.2227273 24.7227273,14.6045455 L23.3863636,15.9409091 C23.0045455,16.3227273 22.4318182,16.3227273 22.05,15.9409091 L19.6636364,13.5545455 C18.9,12.7909091 17.85,12.3136364 16.7045455,12.3136364 C14.4136364,12.3136364 12.5045455,14.2227273 12.5045455,16.5136364 C12.5045455,17.6590909 12.9818182,18.7090909 13.7454545,19.4727273 L16.1318182,21.8590909 C16.3227273,22.3363636 16.3227273,22.9090909 16.0363636,23.2909091 Z M16.5136364,17.85 L17.85,16.5136364 C18.2318182,16.1318182 18.8045455,16.1318182 19.1863636,16.5136364 L25.4863636,22.8136364 C25.8681818,23.1954545 25.8681818,23.7681818 25.4863636,24.15 L24.15,25.4863636 C23.7681818,25.8681818 23.1954545,25.8681818 22.8136364,25.4863636 L16.5136364,19.1863636 C16.1318182,18.8045455 16.1318182,18.2318182 16.5136364,17.85 Z M25.3909091,33.4090909 C23.2909091,33.4090909 21.1909091,32.55 19.6636364,31.0227273 L17.2772727,28.6363636 C16.8954545,28.2545455 16.8954545,27.6818182 17.2772727,27.3 L18.6136364,25.9636364 C18.9954545,25.5818182 19.5681818,25.5818182 19.95,25.9636364 L22.3363636,28.35 C23.1,29.1136364 24.15,29.5909091 25.2954545,29.5909091 C27.5863636,29.5909091 29.4954545,27.6818182 29.4954545,25.3909091 C29.4954545,24.2454545 29.0181818,23.1954545 28.2545455,22.4318182 L25.8681818,20.0454545 C25.4863636,19.6636364 25.4863636,19.0909091 25.8681818,18.7090909 L27.2045455,17.3727273 C27.5863636,16.9909091 28.1590909,16.9909091 28.5409091,17.3727273 L30.9272727,19.7590909 C32.4545455,21.2863636 33.3136364,23.2909091 33.3136364,25.4863636 C33.4090909,29.7818182 29.7818182,33.4090909 25.3909091,33.4090909 Z" id="Shape"></path>
            </g>
        </g>
    </g>
</svg>
