<?xml version="1.0" encoding="UTF-8"?>
<svg width="41px" height="40px" viewBox="0 0 41 40" version="1.1" xmlns="http://www.w3.org/2000/svg" xmlns:xlink="http://www.w3.org/1999/xlink">
    <!-- Generator: sketchtool 50.2 (55047) - http://www.bohemiancoding.com/sketch -->
    <title>E254FA8C-47C4-4730-9919-C5FC7ACBBB20</title>
    <desc>Created with sketchtool.</desc>
    <defs></defs>
    <g id="Page-1" stroke="none" stroke-width="1" fill="none" fill-rule="evenodd">
        <g id="New-popup" transform="translate(-764.000000, -671.000000)" fill="#7F7F7F">
            <g id="Social-networks" transform="translate(635.000000, 671.000000)">
                <g id="SLACK" transform="translate(129.333333, 0.000000)">
                    <path d="M20,40 C8.954305,40 0,31.045695 0,20 C0,8.954305 8.954305,0 20,0 C31.045695,0 40,8.954305 40,20 C40,31.045695 31.045695,40 20,40 Z M34.447235,20.9231991 C33.8819684,19.6577862 32.3967762,19.0898091 31.1313085,19.6550512 L29.9232792,20.1965895 L26.8270773,13.2760208 L28.0351066,12.7363057 C29.3005743,12.1692403 29.8676643,10.685024 29.301486,9.42052276 C28.7362195,8.15419816 27.2519389,7.58622104 25.9855595,8.15328648 L24.7784419,8.69391318 L24.2377918,7.48502447 C23.6716136,6.21961155 22.187333,5.65345779 20.9218653,6.21961155 C19.6563977,6.78485363 19.0902194,8.26815826 19.6554859,9.53539453 L20.196136,10.7433716 L13.2752677,13.8385278 L12.7355294,12.6305508 C12.1693511,11.3633145 10.6850706,10.7989841 9.41960288,11.3633145 C8.1541352,11.9294683 7.58795693,13.4136846 8.15322348,14.6790975 L8.69296186,15.8861628 L7.48584427,16.4277012 C6.22037658,16.993855 5.6532866,18.4762479 6.21946486,19.7425725 C6.78473141,21.0079854 8.26992367,21.5750509 9.53539135,21.0098088 L10.7434207,20.4682704 L13.8377991,27.3897509 L12.6297698,27.9294659 C11.3643021,28.4956196 10.7981239,29.9807476 11.3633904,31.2452489 C11.9295687,32.5115735 13.4138492,33.0786389 14.6793169,32.5133968 L15.8864345,31.9727701 L16.4270846,33.1807471 C16.9932629,34.4470717 18.4775434,35.0132255 19.7430111,34.4470717 C21.007567,33.8818297 21.574657,32.3976134 21.0084788,31.1322004 L20.4696521,29.9233117 L27.3905204,26.8290672 L27.9302588,28.0333975 C28.496437,29.3015454 29.9798059,29.8686109 31.2461853,29.3024571 C32.5116529,28.7381267 33.0787429,27.2529987 32.5125647,25.9866741 L31.9728263,24.7796088 L33.1790321,24.2380704 C34.4463233,23.6719167 35.0134133,22.188612 34.447235,20.9231991 Z" id="Combined-Shape"></path>
                    <polygon id="Path" points="18.420105 25.3412042 15.3248148 18.418812 22.2456831 15.3245675 25.3409733 22.2451362"></polygon>
                </g>
            </g>
        </g>
    </g>
</svg>