<?xml version="1.0" encoding="UTF-8"?>
<svg width="40px" height="40px" viewBox="0 0 40 40" version="1.1" xmlns="http://www.w3.org/2000/svg" xmlns:xlink="http://www.w3.org/1999/xlink">
    <!-- Generator: sketchtool 50.2 (55047) - http://www.bohemiancoding.com/sketch -->
    <title>262A7BD4-B067-42ED-B778-53F2BC242C08</title>
    <desc>Created with sketchtool.</desc>
    <defs></defs>
    <g id="Page-1" stroke="none" stroke-width="1" fill="none" fill-rule="evenodd">
        <g id="New-popup" transform="translate(-829.000000, -671.000000)" fill="#7F7F7F">
            <g id="Social-networks" transform="translate(635.000000, 671.000000)">
                <g id="TELEGRAM" transform="translate(194.000000, 0.000000)">
                    <path d="M20,40 C8.954305,40 0,31.045695 0,20 C0,8.954305 8.954305,0 20,0 C31.045695,0 40,8.954305 40,20 C40,31.045695 31.045695,40 20,40 Z M3.82789656,20.4942437 L10.279665,22.9306907 L12.7768949,31.0566189 C12.9366818,31.5770553 13.565656,31.7694213 13.9831365,31.4240691 L17.5794612,28.4576477 C17.9564351,28.1468591 18.4933824,28.1313716 18.8873429,28.4207233 L25.3738314,33.1856769 C25.820432,33.5141251 26.4531395,33.266514 26.5651397,32.7204855 L31.3168392,9.59397679 C31.439106,8.99751947 30.8598786,8.49993657 30.2985712,8.71959454 L3.82033655,19.0547569 C3.16690903,19.3097339 3.17260237,20.2457828 3.82789656,20.4942437 Z" id="Combined-Shape"></path>
                    <g id="telegram" transform="translate(11.333333, 13.666667)">
                        <path d="M1.04110775,7.96704096 L13.6502709,0.109310739 C13.8768846,-0.031493229 14.1100315,0.278539921 13.9154313,0.461179005 L3.50921765,10.2485185 C3.14344384,10.5930208 2.90749686,11.054057 2.84067011,11.554473 L2.48618965,14.2124666 C2.43924292,14.5673568 1.94653561,14.6025814 1.84974881,14.2591179 L0.486427027,9.41219396 C0.330280156,8.85936604 0.557827121,8.26885818 1.04110775,7.96704096 Z" id="XMLID_497_-path"></path>
                    </g>
                </g>
            </g>
        </g>
    </g>
</svg>