<?xml version="1.0" encoding="UTF-8"?>
<svg width="40px" height="40px" viewBox="0 0 40 40" version="1.1" xmlns="http://www.w3.org/2000/svg" xmlns:xlink="http://www.w3.org/1999/xlink">
    <!-- Generator: sketchtool 50.2 (55047) - http://www.bohemiancoding.com/sketch -->
    <title>256D26E1-ADE6-4E00-8457-91D8346E32C7</title>
    <desc>Created with sketchtool.</desc>
    <defs></defs>
    <g id="Page-1" stroke="none" stroke-width="1" fill="none" fill-rule="evenodd">
        <g id="New-popup" transform="translate(-635.000000, -671.000000)" fill="#7F7F7F" fill-rule="nonzero">
            <g id="Social-networks" transform="translate(635.000000, 671.000000)">
                <g id="TWITTER">
                    <path d="M19.8608,0 C8.9096,0 0,8.9096 0,19.8608 C0,30.8112 8.9096,39.7216 19.8608,39.7216 C30.8112,39.7216 39.7216,30.8112 39.7216,19.8608 C39.7216,8.9096 30.8128,0 19.8608,0 Z M28.7208,15.3152 C28.7296,15.512 28.7344,15.7104 28.7344,15.9088 C28.7344,21.9496 24.1376,28.9128 15.7272,28.9128 C13.1456,28.9128 10.7424,28.1584 8.72,26.8608 C9.0776,26.9032 9.4416,26.9248 9.8104,26.9248 C11.9528,26.9248 13.9232,26.1936 15.488,24.968 C13.488,24.9312 11.7992,23.6096 11.2176,21.7928 C11.496,21.8456 11.7832,21.8752 12.0768,21.8752 C12.4936,21.8752 12.8984,21.8208 13.2816,21.716 C11.1904,21.2968 9.6152,19.4496 9.6152,17.2336 C9.6152,17.2144 9.6152,17.1944 9.616,17.176 C10.232,17.5176 10.9368,17.724 11.6856,17.7472 C10.46,16.9288 9.6528,15.5288 9.6528,13.9432 C9.6528,13.1048 9.8776,12.3192 10.2712,11.644 C12.5248,14.4104 15.8944,16.2296 19.6928,16.4216 C19.6144,16.0864 19.5752,15.7384 19.5752,15.3792 C19.5752,12.8552 21.6216,10.808 24.1456,10.808 C25.4608,10.808 26.6472,11.3632 27.4824,12.2512 C28.5248,12.0464 29.5008,11.6672 30.3864,11.1416 C30.0424,12.2096 29.32,13.1048 28.3736,13.6712 C29.2992,13.5608 30.1824,13.316 30.9992,12.952 C30.3896,13.8672 29.6144,14.6728 28.7208,15.3152 Z" id="Shape"></path>
                </g>
            </g>
        </g>
    </g>
</svg>