<?xml version="1.0" encoding="UTF-8"?>
<svg width="200px" height="37px" viewBox="0 0 200 37" version="1.1" xmlns="http://www.w3.org/2000/svg" xmlns:xlink="http://www.w3.org/1999/xlink">
    <!-- Generator: Sketch 49 (51002) - http://www.bohemiancoding.com/sketch -->
    <title>Artboard</title>
    <desc>Created with Sketch.</desc>
    <defs></defs>
    <g id="Artboard" stroke="none" stroke-width="1" fill="none" fill-rule="evenodd">
        <g id="Group" fill="#FDE21D">
            <polyline id="Fill-13" points="66.5722736 22.6691312 66.5722736 27.4654344 50.497597 27.4654344 50.497597 1.23659889 55.6310536 1.23659889 55.6310536 22.6691312 66.5722736 22.6691312"></polyline>
            <path d="M81.9707948,16.1120148 C81.8957486,13.638817 80.3219963,12.0650647 77.9238447,12.0650647 C75.4510166,12.0650647 73.8399261,13.7515712 73.6151571,16.1120148 L81.9707948,16.1120148 Z M86.8417745,19.4469501 L73.6151571,19.4469501 C73.7648799,21.9574861 75.4883549,23.7186691 78.1489834,23.7186691 C80.0598891,23.7186691 81.483549,22.9689464 82.0085028,21.5075786 L86.72939,21.5075786 C85.5678373,25.5168207 82.6077634,27.8772643 78.0365989,27.8772643 C72.4162662,27.8772643 68.594085,23.9804067 68.594085,17.9855823 C68.594085,12.2528651 72.3785582,8.05582255 78.0365989,8.05582255 C83.0573013,8.05582255 86.8417745,11.2406654 86.8417745,17.910536 L86.8417745,19.4469501 Z" id="Fill-14"></path>
            <path d="M100.516821,14.8003697 C100.516821,12.9645102 99.355268,11.728281 97.6691312,11.728281 C95.9083179,11.728281 94.8218115,12.9645102 94.8218115,14.8003697 C94.8218115,16.5619224 95.9456562,17.8354898 97.6691312,17.8354898 C99.355268,17.8354898 100.516821,16.5619224 100.516821,14.8003697 Z M94.4469501,29.7134935 C94.4469501,31.4369686 95.9456562,32.2983364 98.3064695,32.2983364 C100.591867,32.2983364 101.94085,31.4 101.94085,29.638817 C101.94085,28.2144177 100.92902,27.5401109 99.2432532,27.5401109 L96.3955638,27.5401109 C95.3086876,27.6902033 94.4469501,28.4022181 94.4469501,29.7134935 Z M107.636229,12.5900185 L104.825878,12.5900185 C105.050647,13.2639556 105.163031,14.0136784 105.163031,14.8003697 C105.163031,18.6225508 102.090573,21.3955638 97.7068392,21.3955638 C96.5822551,21.3955638 95.4957486,21.2073937 94.5593346,20.9079482 C94.2968577,21.2454713 94.0720887,21.6953789 94.0720887,22.2942699 C94.0720887,23.3064695 94.8218115,23.8683919 95.9829945,23.8683919 L100.479482,23.8683919 C104.37671,23.8683919 106.699445,25.7792976 106.699445,29.3390018 C106.699445,33.6103512 103.36451,35.9334566 98.3064695,35.9334566 C92.6480591,35.9334566 89.6883549,33.8351201 89.6883549,30.0879852 C89.6883549,28.4395564 90.6621072,27.3526802 91.5992606,26.7534196 C90.4377079,25.9663586 89.3885397,24.5053604 89.3885397,22.6691312 C89.3885397,20.8332717 90.212939,19.5585952 91.3744917,18.6602588 C90.5127542,17.6107209 90.0628466,16.2994455 90.0628466,14.8003697 C90.0628466,10.8661738 93.2103512,8.05582255 97.7068392,8.05582255 C98.6805915,8.05582255 99.6173752,8.16857671 100.442144,8.46802218 L107.636229,8.46802218 L107.636229,12.5900185 Z" id="Fill-15"></path>
            <path d="M110.257671,27.4654344 L115.091682,27.4654344 L115.091682,8.46802218 L110.257671,8.46802218 L110.257671,27.4654344 Z M115.615896,2.88502773 C115.615896,4.53419593 114.304621,5.77042514 112.655823,5.77042514 C111.044362,5.77042514 109.733087,4.53419593 109.733087,2.88502773 C109.733087,1.27393715 111.044362,0 112.655823,0 C114.304621,0 115.615896,1.27393715 115.615896,2.88502773 Z" id="Fill-16"></path>
            <path d="M144.166728,9.66691312 L138.546396,9.66691312 C137.571904,7.08170055 135.661368,5.54528651 132.139372,5.54528651 C127.49353,5.54528651 124.346026,9.25508318 124.346026,14.3134935 C124.346026,19.4092421 127.49353,23.1563771 132.177079,23.1563771 C135.848429,23.1563771 137.984473,21.3201479 138.84658,18.7722736 L144.242144,18.7722736 C142.855823,24.4676525 138.883919,27.9523105 132.177079,27.9523105 C124.458041,27.9523105 119.025508,22.1822551 119.025508,14.3134935 C119.025508,6.48243993 124.458041,0.74935305 132.139372,0.74935305 C138.771534,0.74935305 142.743438,4.42144177 144.166728,9.66691312" id="Fill-17"></path>
            <path d="M151.509057,21.9944547 C151.509057,23.1182994 152.296488,23.8683919 153.757486,23.8683919 C154.956007,23.8683919 156.11793,23.2687616 156.792976,22.1441774 C157.204806,21.5075786 157.467283,20.5715342 157.467283,19.6340111 L157.467283,19.0724584 L153.68244,19.8591497 C152.408503,20.1589649 151.509057,20.7208872 151.509057,21.9944547 Z M162.337893,14.9878004 L162.337893,27.4654344 L158.178928,27.4654344 L157.879482,25.142329 C156.867283,26.6780037 155.144177,27.8772643 152.445841,27.8772643 C149.073937,27.8772643 146.675416,25.8166359 146.675416,22.4066543 C146.675416,18.6972274 149.185582,17.2735675 152.558595,16.7112754 L157.467283,15.8495379 L157.467283,15.1001848 C157.467283,13.1892791 156.567468,12.2151571 154.806285,12.2151571 C153.195194,12.2151571 151.921257,13.1892791 151.921257,14.7256932 L147.237708,14.7256932 C147.462847,10.8661738 150.310166,8.05582255 154.806285,8.05582255 C159.265434,8.05582255 162.337893,10.3415896 162.337893,14.9878004 Z" id="Fill-18"></path>
            <path d="M179.946396,14.0510166 L175.150832,14.0510166 C175.113494,12.664695 174.438817,11.8780037 172.977079,11.8780037 C171.553789,11.8780037 170.879113,12.664695 170.879113,13.7515712 C170.879113,14.9131238 171.516821,15.4750462 174.17634,15.9622921 C178.785582,16.7112754 180.396673,18.6225508 180.396673,21.6953789 C180.396673,26.0036969 176.986691,27.8772643 173.052495,27.8772643 C168.368946,27.8772643 165.783734,25.4414048 165.634011,21.6953789 L170.429945,21.6953789 C170.467283,23.2310536 171.478743,24.0554529 173.16525,24.0554529 C174.663956,24.0554529 175.525693,23.3438078 175.525693,22.2195933 C175.525693,21.057671 174.925693,20.3833641 172.078373,19.8591497 C167.919039,19.1467652 166.046211,17.3486137 166.046211,14.2011091 C166.046211,10.94122 168.331608,8.05582255 173.014787,8.05582255 C177.024399,8.05582255 179.83475,10.4539741 179.946396,14.0510166" id="Fill-19"></path>
            <path d="M193.771904,8.05582255 C197.819224,8.05582255 199.91719,10.8288355 199.91719,15.1378928 L199.91719,27.4654344 L195.083919,27.4654344 L195.083919,16.187061 C195.083919,13.9763401 194.147135,12.7770795 192.310906,12.7770795 C190.474677,12.7770795 188.97597,14.2384473 188.97597,17.4236599 L188.97597,27.4654344 L184.142699,27.4654344 L184.142699,0.112754159 L188.97597,0.112754159 L188.97597,10.4916821 C189.80037,9.21737523 191.299076,8.05582255 193.771904,8.05582255" id="Fill-20"></path>
            <polyline id="Fill-21" points="0 27.4720887 13.432902 14.0380776 0 0.604066543 17.1216266 0.604066543 30.5556377 14.0380776 17.1216266 27.4720887 0 27.4720887"></polyline>
        </g>
    </g>
</svg>